<svg xmlns="http://www.w3.org/2000/svg" xmlns:xlink="http://www.w3.org/1999/xlink" version="1.1"
  width="3192" height="3154.96318798359" viewBox="0 0 3192 3154.96318798359">

  <g transform="scale(9.6) translate(10, 10)">
    <defs id="SvgjsDefs4716" />
    <g id="SvgjsG4718" featureKey="symbolFeature-0"
      transform="matrix(0.8626178078585435,0,0,0.8626178078585435,113.33064971392417,70.99843726124453)"
      fill="#fff">
      <path xmlns="http://www.w3.org/2000/svg"
        d="M47.041,85.6c0,4.209-3.412,7.621-7.621,7.621c-4.208,0-7.62-3.412-7.62-7.621  c0-4.208,3.412-7.621,7.62-7.621C43.629,77.979,47.041,81.392,47.041,85.6z M84.421,47.277c-5.21,1.406-10.037,3.25-13.236,5.65  c-1.907,1.431-2.719,2.69-3.063,3.494c-0.333,0.776-0.301,1.279-0.293,1.353l0.272,1.153l-1.189-0.211c0,0-0.272-0.038-0.687-0.038  c-1.016,0-2.86,0.223-3.795,1.719c-0.864,1.382-1.193,2.313-1.319,2.826c1.358,0.532,5.452,2.126,5.452,2.126  c5.447-5.958,13.434-11.51,19.46-15.27c-0.032-0.455-0.15-1.203-0.568-1.74C85.03,47.795,84.654,47.459,84.421,47.277z   M38.957,44.72c2.562-2.725,4.664-6.08,6.254-9.984c-0.438-0.037-0.988-0.067-1.586-0.067c-1.545,0-2.831,0.208-3.721,0.6  c-1.598,0.706-2.221,1.238-2.429,1.454c-0.063,2.112-0.398,3.808-1.051,5.32c-1.155,2.678-3.984,5.583-8.407,8.635  c-0.954,0.658-1.876,1.248-2.705,1.755c1.661-0.351,3.727-0.964,5.938-2.033C34.131,49.005,36.725,47.095,38.957,44.72z   M65.965,57.062c-8.942-7.379-14.152-17.501-14.043-23.847c0.119-6.955-1.319-9.232-1.319-9.232c2.598-2.108,4.723-4.32,6.462-6.507  c-0.067-0.333-0.253-1.076-0.747-2.361c-0.429-1.116-1.648-1.805-2.384-2.131c-0.673,0.084-1.41,0.143-2.252,0.238  c-2.938,0.33-3.896-0.21-5.936-0.09c-0.339,0.021-0.679,0.044-1.017,0.078c0,0,2.055-7.943-2.76-11.528  c-5.331-3.971-13.667-0.481-13.077,6.05c0,0,1.86-0.127,2.16-0.127c1.595,0,3.056,0.32,4.343,0.952  c3.435,1.686,5.788,4.823,5.888,4.956l0.561,0.755l-0.83,0.443c-0.787,0.419-1.416,0.989-1.985,1.806  c-0.087,0.137-0.408,0.702-0.408,0.702c-0.302,0.571-0.585,1.222-0.847,1.969c-1.932,5.518-0.752,10.933-0.687,15.767  c0.492-0.34,1.186-0.734,2.163-1.166c1.109-0.49,2.581-0.738,4.375-0.738c1.563,0,2.801,0.191,2.853,0.199l0.983,0.155l-0.352,0.932  c-1.706,4.523-4.052,8.391-6.972,11.496c-0.39,0.415-0.792,0.815-1.202,1.204c0.132,0.729,0.276,1.616,0.276,2.007  c0,0.719-0.231,1.636-0.231,1.636c-3.332,2.802-6.889,6.402-9.889,9.63c1.717-0.612,4.508-1.482,6.5-1.482  c1.353,0,2.249,0.403,2.666,1.198c0.833,1.591,0.749,3.1,0.549,4.052l9.398-6.042c4.034,2.403,4.535,2.763,11.222,5.399  c0.062-0.604,0.362-1.869,1.628-3.895C62.322,57.512,64.575,57.104,65.965,57.062z M32.765,11.659  c0.353,2.815,0.849,3.564,1.699,4.024c0.437,0.236,1.078,0.36,1.854,0.361c0.455,0,0.865-0.043,1.132-0.081  c0.574-0.908,1.217-1.615,1.971-2.166c-0.845-0.963-2.577-2.728-4.738-3.789c-0.822-0.403-1.738-0.653-2.733-0.746  C32.311,9.871,32.641,10.667,32.765,11.659z M94.587,45.08c-2.718,0.468-5.548,1.036-8.313,1.719  c0.147,0.162,0.302,0.343,0.46,0.547c0.438,0.564,0.671,1.229,0.792,1.809c0,0,0.033-0.074,2.726-1.627  C92.942,45.974,94.587,45.08,94.587,45.08z M35.592,60.447c-2.402,0-6.395,1.536-7.252,1.876c-2.876,3.159-5.062,5.763-5.657,6.479  c-0.772,9.536-2.638,16.546-5.548,20.837c-0.883,1.304-2.146,2.749-3.833,3.757c0.201,0.357,0.651,0.903,1.644,1.361  c1.316,0.607,2.768,0.733,3.512,0.754c3.762-5.557,7.538-12.054,9.108-17.634c0.99-3.517,0.755-5.568,0.489-6.173l-0.325-0.574  l0.523-0.402c1.95-1.671,4.924-3.86,8.842-6.507c0.172-0.5,0.527-1.917-0.273-3.444C36.738,60.617,36.371,60.447,35.592,60.447z   M11.842,94.105c-0.951,0.362-2.01,0.578-3.183,0.578c-1.228,0-2.339-0.237-3.246-0.531c0.696,1.001,1.894,2.304,3.943,3.689  c1.684,1.138,3.317,1.477,4.416,1.894c0.688,0.192,1.19,0.25,1.488,0.265c0.761-1.031,1.327-1.785,2.132-2.938  c-0.895-0.101-2.035-0.328-3.126-0.832C12.854,95.578,12.172,94.733,11.842,94.105z M58.285,15.806  c3.787-3.486,6.008-7.763,6.661-12.124c0,0-2,3.702-4.024,6.059c-2.025,2.356-4.776,2.668-4.776,2.668  c0.681,0.514,1.334,1.211,1.685,2.124C58.02,15.023,58.168,15.446,58.285,15.806z" />
    </g>
  </g>
</svg>
	